<svg width="32" height="32" viewBox="0 0 32 32" xmlns="http://www.w3.org/2000/svg">
  <defs>
    <linearGradient id="g" x1="0" y1="0" x2="1" y2="1">
      <stop offset="0" stop-color="#34d399"/>
      <stop offset="1" stop-color="#2dd4bf"/>
    </linearGradient>
  </defs>
  <rect width="32" height="32" rx="8" fill="url(#g)"/>
  <g transform="translate(3.9 3.9) scale(0.755)">
    <path d="M4 20.5 6.3 13.6C6.85 11.9 8.45 10.8 10.2 10.8h11.6c1.75 0 3.35 1.1 3.9 2.8L28 20.5v3.1c0 1-.8 1.8-1.8 1.8h-1.1a2.6 2.6 0 0 1-5.05 0h-8.1a2.6 2.6 0 0 1-5.05 0H5.8c-1 0-1.8-.8-1.8-1.8z" fill="#04160e"/>
    <path d="M10.9 12.7h10.2l1.5 4.3c.13.36-.14.75-.53.75H9.93c-.39 0-.66-.39-.53-.75z" fill="#ffffff" fill-opacity="0.92"/>
    <path d="M16 12.7v5.05" stroke="#04160e" stroke-width="1.1"/>
    <circle cx="10.6" cy="24.4" r="2.9" fill="#04160e"/>
    <circle cx="21.4" cy="24.4" r="2.9" fill="#04160e"/>
  </g>
</svg>
